<?xml version="1.0" encoding="UTF-8" standalone="no"?>
<!-- Generator: Adobe Illustrator 22.1.0, SVG Export Plug-In . SVG Version: 6.00 Build 0)  -->

<svg
   version="1.1"
   id="BOSCH_SUPERGRAPHIC_A3_4C"
   x="0px"
   y="0px"
   viewBox="0 0 1300 550.951"
   style="enable-background:new 0 0 1300 550.951;"
   xml:space="preserve"
   sodipodi:docname="Bosch-Supergraphic_RGB.svg"
   inkscape:version="1.1.2 (0a00cf5339, 2022-02-04)"
   xmlns:inkscape="http://www.inkscape.org/namespaces/inkscape"
   xmlns:sodipodi="http://sodipodi.sourceforge.net/DTD/sodipodi-0.dtd"
   xmlns="http://www.w3.org/2000/svg"
   xmlns:svg="http://www.w3.org/2000/svg"><defs
   id="defs869" /><sodipodi:namedview
   id="namedview867"
   pagecolor="#ffffff"
   bordercolor="#666666"
   borderopacity="1.0"
   inkscape:pageshadow="2"
   inkscape:pageopacity="0.0"
   inkscape:pagecheckerboard="0"
   showgrid="false"
   inkscape:zoom="1.0292308"
   inkscape:cx="649.5142"
   inkscape:cy="275.44843"
   inkscape:window-width="2486"
   inkscape:window-height="1376"
   inkscape:window-x="74"
   inkscape:window-y="27"
   inkscape:window-maximized="1"
   inkscape:current-layer="BOSCH_SUPERGRAPHIC_A3_4C" />
<g
   id="g864"
   transform="matrix(1,0,0,0.00907517,0,-9.9092483e-4)">
	<linearGradient
   id="SVGID_1_"
   gradientUnits="userSpaceOnUse"
   x1="0"
   y1="275.47559"
   x2="1300"
   y2="275.47559">
		<stop
   offset="0"
   style="stop-color:#942331"
   id="stop630" />
		<stop
   offset="0.0361"
   style="stop-color:#931813"
   id="stop632" />
		<stop
   offset="0.0846"
   style="stop-color:#B12638"
   id="stop634" />
		<stop
   offset="0.1237"
   style="stop-color:#AF1917"
   id="stop636" />
		<stop
   offset="0.1257"
   style="stop-color:#B11917"
   id="stop638" />
		<stop
   offset="0.1533"
   style="stop-color:#CB1517"
   id="stop640" />
		<stop
   offset="0.1697"
   style="stop-color:#D51317"
   id="stop642" />
		<stop
   offset="0.1755"
   style="stop-color:#CE1B24"
   id="stop644" />
		<stop
   offset="0.1876"
   style="stop-color:#BB2742"
   id="stop646" />
		<stop
   offset="0.205"
   style="stop-color:#9B326B"
   id="stop648" />
		<stop
   offset="0.2142"
   style="stop-color:#88357F"
   id="stop650" />
		<stop
   offset="0.2436"
   style="stop-color:#853580"
   id="stop652" />
		<stop
   offset="0.2638"
   style="stop-color:#6E368C"
   id="stop654" />
		<stop
   offset="0.2911"
   style="stop-color:#3A4190"
   id="stop656" />
		<stop
   offset="0.3242"
   style="stop-color:#14387F"
   id="stop658" />
		<stop
   offset="0.3926"
   style="stop-color:#2B2F75"
   id="stop660" />
		<stop
   offset="0.4181"
   style="stop-color:#312A6F"
   id="stop662" />
		<stop
   offset="0.4756"
   style="stop-color:#2A3281"
   id="stop664" />
		<stop
   offset="0.494"
   style="stop-color:#283587"
   id="stop666" />
		<stop
   offset="0.5581"
   style="stop-color:#1D61A1"
   id="stop668" />
		<stop
   offset="0.5667"
   style="stop-color:#2169A5"
   id="stop670" />
		<stop
   offset="0.6085"
   style="stop-color:#3D8FB6"
   id="stop672" />
		<stop
   offset="0.6393"
   style="stop-color:#53A7BE"
   id="stop674" />
		<stop
   offset="0.6556"
   style="stop-color:#5BB0C0"
   id="stop676" />
		<stop
   offset="0.6748"
   style="stop-color:#53ADBE"
   id="stop678" />
		<stop
   offset="0.6993"
   style="stop-color:#36A3BA"
   id="stop680" />
		<stop
   offset="0.7266"
   style="stop-color:#0095B3"
   id="stop682" />
		<stop
   offset="0.7426"
   style="stop-color:#008BAE"
   id="stop684" />
		<stop
   offset="0.798"
   style="stop-color:#009490"
   id="stop686" />
		<stop
   offset="0.8875"
   style="stop-color:#00A24C"
   id="stop688" />
		<stop
   offset="1"
   style="stop-color:#00937D"
   id="stop690" />
	</linearGradient>
	<rect
   style="fill:url(#SVGID_1_)"
   width="1300"
   height="550.95099"
   id="rect693"
   x="0"
   y="0" />
	<g
   id="g862">
		<linearGradient
   id="SVGID_2_"
   gradientUnits="userSpaceOnUse"
   x1="370.57529"
   y1="413.2146"
   x2="210.2914"
   y2="413.2146">
			<stop
   offset="0"
   style="stop-color:#88357F"
   id="stop695" />
			<stop
   offset="0.3354"
   style="stop-color:#88357F"
   id="stop697" />
			<stop
   offset="0.5997"
   style="stop-color:#8B2E64"
   id="stop699" />
			<stop
   offset="0.871"
   style="stop-color:#8E284A"
   id="stop701" />
			<stop
   offset="1"
   style="stop-color:#8F2540"
   id="stop703" />
			<stop
   offset="1"
   style="stop-color:#8F2540"
   id="stop705" />
		</linearGradient>
		<polygon
   style="fill:url(#SVGID_2_)"
   points="314.769,275.478 210.291,550.951 370.575,550.951 "
   id="polygon708" />
		<linearGradient
   id="SVGID_3_"
   gradientUnits="userSpaceOnUse"
   x1="647.05432"
   y1="0.53670001"
   x2="588.82501"
   y2="364.6517">
			<stop
   offset="0"
   style="stop-color:#312A6F"
   id="stop710" />
			<stop
   offset="0.2427"
   style="stop-color:#312A6F"
   id="stop712" />
			<stop
   offset="0.418"
   style="stop-color:#2F2D72"
   id="stop714" />
			<stop
   offset="0.6245"
   style="stop-color:#2B337A"
   id="stop716" />
			<stop
   offset="0.8457"
   style="stop-color:#1E3E87"
   id="stop718" />
			<stop
   offset="1"
   style="stop-color:#024995"
   id="stop720" />
		</linearGradient>
		<polygon
   style="fill:url(#SVGID_3_)"
   points="643.698,0 562.507,0 518.42,275.478 558.542,550.951 643.698,550.951 "
   id="polygon723" />
		<linearGradient
   id="SVGID_4_"
   gradientUnits="userSpaceOnUse"
   x1="314.76849"
   y1="275.47559"
   x2="456.40741"
   y2="275.47559">
			<stop
   offset="0"
   style="stop-color:#6E368C"
   id="stop725" />
			<stop
   offset="1"
   style="stop-color:#3A4190"
   id="stop727" />
		</linearGradient>
		<polygon
   style="fill:url(#SVGID_4_)"
   points="376.519,0 376.46,0 314.769,275.478 370.575,550.951 456.407,275.478 "
   id="polygon730" />
		<linearGradient
   id="SVGID_5_"
   gradientUnits="userSpaceOnUse"
   x1="562.50702"
   y1="275.47559"
   x2="370.57529"
   y2="275.47559">
			<stop
   offset="0"
   style="stop-color:#14387F"
   id="stop732" />
			<stop
   offset="0.2311"
   style="stop-color:#1D3880"
   id="stop734" />
			<stop
   offset="0.5045"
   style="stop-color:#313881"
   id="stop736" />
			<stop
   offset="0.7981"
   style="stop-color:#493984"
   id="stop738" />
			<stop
   offset="1"
   style="stop-color:#5C3986"
   id="stop740" />
		</linearGradient>
		<polygon
   style="fill:url(#SVGID_5_)"
   points="518.42,275.478 562.507,0 376.519,0 456.407,275.478 370.575,550.951 558.542,550.951 "
   id="polygon743" />
		<polygon
   style="fill:#af1917"
   points="100.019,550.951 210.291,550.951 171.039,275.478 208.692,0 100.019,0 100.019,170.517 161.584,275.478 100.019,380.439 "
   id="polygon745" />
		<linearGradient
   id="SVGID_6_"
   gradientUnits="userSpaceOnUse"
   x1="377.7435"
   y1="137.73911"
   x2="204.3503"
   y2="137.73911">
			<stop
   offset="0"
   style="stop-color:#88357F"
   id="stop747" />
			<stop
   offset="0.3354"
   style="stop-color:#88357F"
   id="stop749" />
			<stop
   offset="0.5997"
   style="stop-color:#8B2E64"
   id="stop751" />
			<stop
   offset="0.871"
   style="stop-color:#8E284A"
   id="stop753" />
			<stop
   offset="1"
   style="stop-color:#8F2540"
   id="stop755" />
			<stop
   offset="1"
   style="stop-color:#8F2540"
   id="stop757" />
		</linearGradient>
		<polygon
   style="fill:url(#SVGID_6_)"
   points="314.769,275.478 376.46,0 208.692,0 "
   id="polygon760" />
		<polygon
   style="fill:#931813"
   points="100.019,170.517 100.019,0 0,0 "
   id="polygon762" />
		<polygon
   style="fill:#b12638"
   points="100.019,380.439 161.584,275.478 100.019,170.517 "
   id="polygon764" />
		<polygon
   style="fill:#931813"
   points="100.019,380.439 0,550.951 100.019,550.951 "
   id="polygon766" />
		<polygon
   style="fill:#942331"
   points="0,0 0,550.951 100.019,380.439 100.019,170.517 "
   id="polygon768" />
		<polygon
   style="fill:#d51317"
   points="171.039,275.478 210.291,550.951 314.769,275.478 208.692,0 "
   id="polygon770" />
		<linearGradient
   id="SVGID_7_"
   gradientUnits="userSpaceOnUse"
   x1="1132.5941"
   y1="0"
   x2="1132.5941"
   y2="550.95111">
			<stop
   offset="0"
   style="stop-color:#94BD55"
   id="stop772" />
			<stop
   offset="0.3332"
   style="stop-color:#8CBC68"
   id="stop774" />
			<stop
   offset="0.6886"
   style="stop-color:#85BB74"
   id="stop776" />
			<stop
   offset="1"
   style="stop-color:#83BB78"
   id="stop778" />
		</linearGradient>
		<path
   style="fill:url(#SVGID_7_)"
   d="m 1153.453,466.693 c 3.146,-45.624 18.03,-98.224 33.784,-153.919 2.517,-8.906 5.08,-17.959 7.633,-27.144 -2.557,-9.868 -5.118,-19.605 -7.641,-29.183 -15.75,-59.865 -30.636,-116.4 -33.779,-165.44 -2.438,-38.07 2.544,-66.549 16.055,-91.008 h -82.537 c -13.508,32.851 -18.495,52.288 -16.05,90.358 3.141,49.035 18.03,105.573 33.779,165.435 23.34,88.675 50.35,190.901 41.677,295.157 h 23.172 c -13.538,-22.766 -18.537,-48.8 -16.093,-84.256 z"
   id="path781" />
		<linearGradient
   id="SVGID_8_"
   gradientUnits="userSpaceOnUse"
   x1="961.37012"
   y1="5.8512998"
   x2="1104.7043"
   y2="548.34601">
			<stop
   offset="0"
   style="stop-color:#00A24C"
   id="stop783" />
			<stop
   offset="0.1984"
   style="stop-color:#00A150"
   id="stop785" />
			<stop
   offset="0.4785"
   style="stop-color:#009D5C"
   id="stop787" />
			<stop
   offset="0.8055"
   style="stop-color:#009770"
   id="stop789" />
			<stop
   offset="1"
   style="stop-color:#00937D"
   id="stop791" />
		</linearGradient>
		<path
   style="fill:url(#SVGID_8_)"
   d="m 1104.696,255.794 c -15.75,-59.862 -30.638,-116.4 -33.779,-165.435 -2.444,-38.07 2.542,-57.508 16.05,-90.358 h -63.731 c 10.184,96.975 -6.793,191.879 -24.457,299.847 -10.312,62.998 -20.977,128.132 -23.739,180.931 -1.99,37.968 0.657,58.907 3.21,70.174 h 168.123 c 8.673,-104.258 -18.337,-206.485 -41.677,-295.159 z"
   id="path794" />
		<path
   style="fill:#169a39"
   d="m 1194.87,285.631 c -2.553,9.184 -5.116,18.238 -7.633,27.144 -15.754,55.695 -30.638,108.295 -33.784,153.919 -2.444,35.456 2.555,61.489 16.091,84.258 h 59.335 c 7.742,-93.002 -12.898,-183.848 -34.009,-265.321 z"
   id="path796" />
		<linearGradient
   id="SVGID_9_"
   gradientUnits="userSpaceOnUse"
   x1="1247.4349"
   y1="0"
   x2="1247.4349"
   y2="550.95111">
			<stop
   offset="0"
   style="stop-color:#699F60"
   id="stop798" />
			<stop
   offset="0.096"
   style="stop-color:#5A9955"
   id="stop800" />
			<stop
   offset="0.2648"
   style="stop-color:#449148"
   id="stop802" />
			<stop
   offset="0.4524"
   style="stop-color:#318C40"
   id="stop804" />
			<stop
   offset="0.6718"
   style="stop-color:#23893B"
   id="stop806" />
			<stop
   offset="1"
   style="stop-color:#1D893A"
   id="stop808" />
		</linearGradient>
		<path
   style="fill:url(#SVGID_9_)"
   d="m 1223.501,0 c 19.203,99.489 -4.408,198.521 -28.631,285.631 21.111,81.474 41.751,172.319 34.01,265.32 H 1300 V 0 Z"
   id="path811" />
		<linearGradient
   id="SVGID_10_"
   gradientUnits="userSpaceOnUse"
   x1="959.16278"
   y1="0"
   x2="959.16278"
   y2="550.95111">
			<stop
   offset="0"
   style="stop-color:#00B5DD"
   id="stop813" />
			<stop
   offset="0.2243"
   style="stop-color:#00B0D8"
   id="stop815" />
			<stop
   offset="0.5483"
   style="stop-color:#00A3C9"
   id="stop817" />
			<stop
   offset="0.9313"
   style="stop-color:#008FB3"
   id="stop819" />
			<stop
   offset="1"
   style="stop-color:#008BAE"
   id="stop821" />
		</linearGradient>
		<path
   style="fill:url(#SVGID_10_)"
   d="M 975.04,480.778 C 977.802,427.979 988.467,362.845 998.779,299.847 1016.444,191.879 1033.42,96.975 1023.236,0 H 895.911 c -2.547,20.516 -5.18,34.49 -3.191,75.227 2.764,56.746 13.421,126.752 23.73,194.459 15.18,99.683 29.843,195.693 27.226,281.265 h 34.573 c -2.552,-11.267 -5.199,-32.205 -3.209,-70.173 z"
   id="path824" />
		<polygon
   style="fill:#283587"
   points="675.504,275.478 643.698,0 643.698,550.951 "
   id="polygon826" />
		<linearGradient
   id="SVGID_11_"
   gradientUnits="userSpaceOnUse"
   x1="1136.3851"
   y1="224.521"
   x2="1218.4878"
   y2="78.057999">
			<stop
   offset="0"
   style="stop-color:#62B16E"
   id="stop828" />
			<stop
   offset="1"
   style="stop-color:#86B857"
   id="stop830" />
		</linearGradient>
		<path
   style="fill:url(#SVGID_11_)"
   d="m 1153.449,91.008 c 3.144,49.04 18.03,105.574 33.779,165.44 2.523,9.578 5.084,19.315 7.641,29.183 C 1219.092,198.521 1242.703,99.489 1223.5,0 h -53.997 c -13.51,24.459 -18.492,52.938 -16.054,91.008 z"
   id="path833" />
		<linearGradient
   id="SVGID_12_"
   gradientUnits="userSpaceOnUse"
   x1="775.49902"
   y1="12.2694"
   x2="921.43518"
   y2="556.91071">
			<stop
   offset="0"
   style="stop-color:#009AD2"
   id="stop835" />
			<stop
   offset="0.3786"
   style="stop-color:#19A1CD"
   id="stop837" />
			<stop
   offset="1"
   style="stop-color:#5BB0C0"
   id="stop839" />
		</linearGradient>
		<path
   style="fill:url(#SVGID_12_)"
   d="M 916.451,269.686 C 906.142,201.979 895.485,131.973 892.721,75.227 890.731,34.489 893.365,20.515 895.912,0 H 821.29 c 2.745,72.183 -2.7,153.316 -12.506,289.038 -5.654,78.253 -14.391,198.692 -12.645,261.913 H 943.678 C 946.294,465.38 931.632,369.369 916.451,269.686 Z"
   id="path842" />
		<linearGradient
   id="SVGID_13_"
   gradientUnits="userSpaceOnUse"
   x1="694.55103"
   y1="0"
   x2="694.55103"
   y2="550.95111">
			<stop
   offset="0"
   style="stop-color:#174290"
   id="stop844" />
			<stop
   offset="0.2651"
   style="stop-color:#1C4D98"
   id="stop846" />
			<stop
   offset="0.8022"
   style="stop-color:#2A6DAF"
   id="stop848" />
			<stop
   offset="1"
   style="stop-color:#327AB9"
   id="stop850" />
		</linearGradient>
		<polygon
   style="fill:url(#SVGID_13_)"
   points="643.698,0 675.504,275.478 643.698,550.951 745.302,550.951 745.404,0 "
   id="polygon853" />
		<linearGradient
   id="SVGID_14_"
   gradientUnits="userSpaceOnUse"
   x1="783.65002"
   y1="550.95111"
   x2="783.65002"
   y2="0">
			<stop
   offset="0"
   style="stop-color:#3E9AC9"
   id="stop855" />
			<stop
   offset="1"
   style="stop-color:#1D61A1"
   id="stop857" />
		</linearGradient>
		<path
   style="fill:url(#SVGID_14_)"
   d="M 808.783,289.038 C 818.589,153.316 824.034,72.183 821.289,0 h -75.885 l -0.102,550.951 h 50.837 c -1.747,-63.221 6.99,-183.66 12.644,-261.913 z"
   id="path860" />
	</g>
</g>
</svg>
